# xmcd
# 
# Track frame offsets:
#     150
#     16826
#     32712
#     47024
#     64383
#     81308
#     94561
#     109924
#     125255
#     140590
#     153332
# 
# Disc length: 2291
# 
# Revision: 0
# Processed by: cddbd v1.5.2PL0 Copyright (c) Steve Scherf et al.
# Submitted via: fre:ac v1.1beta1pre4
# 
DISCID=8c08f10b
DTITLE=Terra Lightfoot - Everytime my Mind Runs Wild
DYEAR=2016
DGENRE=Folk
TTITLE0=All Alone
TTITLE1=No Hurry
TTITLE2=Never Will
TTITLE3=Lily's Fair
TTITLE4=See You in the Morning
TTITLE5=Emerald Eyes
TTITLE6=Moonlight
TTITLE7=Home to You
TTITLE8=NFB
TTITLE9=The Truth
TTITLE10=Splinter
EXTD=
EXTT0=
EXTT1=
EXTT2=
EXTT3=
EXTT4=
EXTT5=
EXTT6=
EXTT7=
EXTT8=
EXTT9=
EXTT10=
PLAYORDER=
